<svg xmlns="http://www.w3.org/2000/svg" width="570" height="383.98" viewBox="0 0 570 383.98">
  <g id="img_about" transform="translate(-314.828 -269.067)">
    <path id="Path_106030" data-name="Path 106030" d="M827.174,476.036C795.6,462.8,776.291,260.93,644.366,370.172c-115.96,96.022-112.9-45.827-212.96,16.625-64.944,40.534-72.244,86.925-63.315,110.163,9.757,25.391,16.471,55.748-23.375,76.6-62.5,32.7-16.542,147.641,42.506,148.191s447.233-1.094,447.233-1.094S952.5,528.571,827.174,476.036Z" transform="translate(0 -68.813)" fill="#dbf2ea"/>
    <g id="man" transform="translate(741.251 378.257)">
      <g id="Group_215370" data-name="Group 215370" transform="translate(19.62 122.604)">
        <path id="Path_106031" data-name="Path 106031" d="M2567.595,1612.932s4.424,4.1,3.561,7.014-4.856,4.855-5.4,8.416-2.7,5.5-4.639,5.5h-9.26s-1.43-2.506,2.023-3.261,4.754-4.939,4.539-8.824a69.528,69.528,0,0,1,.323-9.063l7.337-1.726Z" transform="translate(-2487.391 -1483.563)" fill="#233862"/>
        <path id="Path_106032" data-name="Path 106032" d="M2270.225,1666.038h24.588a2.123,2.123,0,0,0,.479-.144c1.639-.819,1.128-7.089.93-9.031-.038-.36-.065-.572-.065-.572s-8.634-6.9-9.82-1.616c-.036.164-.081.327-.129.486-1.492,4.946-8.194,7.195-12.064,7.82C2271.193,1663.46,2270.426,1665.176,2270.225,1666.038Z" transform="translate(-2270.225 -1515.744)" fill="#233862"/>
        <path id="Path_106033" data-name="Path 106033" d="M2291.91,1083.012s1.311,16.356,2.852,36.017c2.094,26.708,4.612,59.514,4.862,65.729.43,10.792,2.159,28.054,2.159,28.054s4.1,4.1,12.3,2.372c0,0,7.309-24.643,9.4-50.716l.1-1.288c1.942-26.543,4.962-82.435,4.962-82.435Z" transform="translate(-2286.963 -1074.272)" fill="#f4be61"/>
        <path id="Path_106034" data-name="Path 106034" d="M2291.91,1083.012s1.311,16.356,2.852,36.017l28.718,45.44.1-1.288c1.942-26.543,4.962-82.435,4.962-82.435Z" transform="translate(-2286.963 -1074.272)" fill="#f2a83d"/>
        <path id="Path_106035" data-name="Path 106035" d="M2318.155,1063.049s23.629,59.236,39.167,87.073,20.392,35.606,20.392,35.606,8.9-3.561,9.711-5.989c0,0-5.941-53.741-16.347-66.842-5.879-7.4-12.786-29.618-13.109-37.386s-2.1-23.144-2.1-23.144Z" transform="translate(-2307.222 -1052.367)" fill="#f4be61"/>
      </g>
      <path id="Path_106036" data-name="Path 106036" d="M2190.869,1027.5l-1.351,2.692s-6.868.96-4.977,8.12c0,0,1.018,2.946,2.912,2.014s.961-.853,3.676-2.108,4.285-3.664,3.678-5.875l.435-2.344Z" transform="translate(-2184.212 -910.572)" fill="#ffb27d"/>
      <path id="Path_106037" data-name="Path 106037" d="M2350.178,632.223a69.369,69.369,0,0,1-1.083-9.88l11.989-9.662c-.445,13.286,8.068,19.674,8.068,19.674s-15.976,7.864-25.211,4.952A22.118,22.118,0,0,1,2350.178,632.223Z" transform="translate(-2307.505 -590.373)" fill="#ffb27d"/>
      <path id="Path_106038" data-name="Path 106038" d="M2344.085,568.693s15.252,2.534,16.684-6.989,4.365-15.609-5.313-17.629-12.12,1.328-13.371,4.39S2340.155,567.788,2344.085,568.693Z" transform="translate(-2305.32 -536.942)" fill="#ffb27d"/>
      <path id="Path_106039" data-name="Path 106039" d="M2360.551,540.306s-.308-12.756-14.205-14.8c-9.519-1.4-3.754-9.356-2.666-10.616,0,0,7.276,1.388,14.724,3.023C2374.036,521.341,2362.2,538.409,2360.551,540.306Z" transform="translate(-2305.202 -514.887)" fill="#163560"/>
      <path id="Path_106040" data-name="Path 106040" d="M2208.391,800.219a26.1,26.1,0,0,1-3.553-4.816s17.329-21.53,18.738-23.763,11.933-38.045,11.933-38.045l26.614-5.391s-22.215,45.832-25.895,51.419c-6.082,9.232-24.276,22.975-24.276,22.975A10.956,10.956,0,0,1,2208.391,800.219Z" transform="translate(-2200.133 -679.544)" fill="#2f916f"/>
      <path id="Path_106041" data-name="Path 106041" d="M2286.4,776.912a1.494,1.494,0,0,0,.971.37c3.467-.047,13.579,1.879,22.135,1,7.213-.693,13.6-2.829,20.452-5.9.91-.408,3.006-1.526,2.959-2.544-.031-1.114-.141-2.73-.28-4.765a254.927,254.927,0,0,1-.507-33.29c.149-2.615.227-5.208.235-7.762.071-19.031-3.638-35.864-11.22-41.529-.648-.464-4.689,1.573-8.343,3.375a12.217,12.217,0,0,1-8.926.981l-4.2,3.042c-3.885,3.606-8.139,8.508-9.987,15.952-1.574,6.334-2.5,17.757-3.006,29.594-.231,5.364-.417,10.775-.464,15.907v.184c-.045.509-.045,1.065-.045,1.573C2285.988,766.276,2286.174,776.726,2286.4,776.912Z" transform="translate(-2262.856 -644.206)" fill="#20aa7a"/>
      <path id="Path_106042" data-name="Path 106042" d="M2440.136,861.093a254.883,254.883,0,0,1-.507-33.29c.148-2.615.226-5.208.235-7.762-3.158-7.663-5.74-13.22-5.74-13.22h-7.962S2420.325,846.693,2440.136,861.093Z" transform="translate(-2370.352 -740.229)" fill="#2f916f"/>
      <g id="Group_215371" data-name="Group 215371" transform="translate(48.416 39.643)">
        <path id="Path_106043" data-name="Path 106043" d="M2558.044,1047.863l1.512,2.605s-2.961,6.271,4.063,8.613c0,0,3.022.762,3.281-1.333s-.187-1.271.251-4.229-.717-5.593-2.9-6.3l-1.722-1.648Z" transform="translate(-2521.185 -964.163)" fill="#ffb27d"/>
        <path id="Path_106044" data-name="Path 106044" d="M2437.327,773.088a26.091,26.091,0,0,1-5.975.332s-8.512-26.294-9.607-28.7-25.283-30.832-25.283-30.832l10.076-25.216s26.161,43.7,28.818,49.84c4.39,10.147,5.913,32.9,5.913,32.9A10.962,10.962,0,0,1,2437.327,773.088Z" transform="translate(-2396.461 -688.676)" fill="#20aa7a"/>
      </g>
    </g>
    <g id="Group_215374" data-name="Group 215374" transform="translate(548.073 326.447)">
      <rect id="Rectangle_156625" data-name="Rectangle 156625" width="136.755" height="62.699" fill="#2f916f"/>
      <g id="Group_215372" data-name="Group 215372" transform="translate(6.099 5.175)">
        <path id="Path_106045" data-name="Path 106045" d="M1380.658,515.425h1.932l2.142,3.445,2.142-3.445h1.932v8.148h-1.781v-5.319l-2.293,3.48h-.046l-2.27-3.445v5.285h-1.758Z" transform="translate(-1380.658 -515.425)" fill="#fff"/>
        <path id="Path_106046" data-name="Path 106046" d="M1424.945,515.425h6.146v1.595h-4.365v1.653h3.841v1.595h-3.841v1.711h4.423v1.595h-6.2Z" transform="translate(-1414.843 -515.425)" fill="#fff"/>
        <path id="Path_106047" data-name="Path 106047" d="M1459.131,515.425h1.653l3.818,5.017v-5.017h1.769v8.148h-1.525l-3.946-5.18v5.18h-1.769Z" transform="translate(-1441.231 -515.425)" fill="#fff"/>
        <path id="Path_106048" data-name="Path 106048" d="M1498.878,520.081v-4.656h1.792v4.609c0,1.327.663,2.014,1.758,2.014s1.758-.664,1.758-1.956v-4.668h1.793v4.6c0,2.468-1.385,3.678-3.574,3.678S1498.878,522.479,1498.878,520.081Z" transform="translate(-1471.911 -515.425)" fill="#fff"/>
      </g>
      <g id="Group_215373" data-name="Group 215373" transform="translate(5.971 18.853)">
        <rect id="Rectangle_156626" data-name="Rectangle 156626" width="26.959" height="3.994" rx="1.997" fill="#fff" opacity="0.2"/>
        <rect id="Rectangle_156627" data-name="Rectangle 156627" width="4.369" height="3.994" rx="1.997" transform="translate(30.672)" fill="#fff" opacity="0.2"/>
        <rect id="Rectangle_156628" data-name="Rectangle 156628" width="26.959" height="3.994" rx="1.997" transform="translate(0 8.467)" fill="#fff" opacity="0.2"/>
        <path id="Path_106049" data-name="Path 106049" d="M1516.935,612.506h-.376a2,2,0,0,0,0,3.994h.376a2,2,0,0,0,0-3.994Z" transform="translate(-1483.891 -604.039)" fill="#fff" opacity="0.2"/>
        <rect id="Rectangle_156629" data-name="Rectangle 156629" width="26.959" height="3.994" rx="1.997" transform="translate(0 17.006)" fill="#fff" opacity="0.2"/>
        <path id="Path_106050" data-name="Path 106050" d="M1516.935,649.939h-.376a2,2,0,0,0,0,3.994h.376a2,2,0,1,0,0-3.994Z" transform="translate(-1483.891 -632.933)" fill="#fff" opacity="0.2"/>
        <rect id="Rectangle_156630" data-name="Rectangle 156630" width="26.959" height="3.994" rx="1.997" transform="translate(0 25.544)" fill="#fff" opacity="0.2"/>
        <path id="Path_106051" data-name="Path 106051" d="M1516.935,687.372h-.376a2,2,0,0,0-2,2h0a2,2,0,0,0,2,2h.376a2,2,0,0,0,2-2h0A2,2,0,0,0,1516.935,687.372Z" transform="translate(-1483.891 -661.828)" fill="#fff" opacity="0.2"/>
        <rect id="Rectangle_156631" data-name="Rectangle 156631" width="26.959" height="3.994" rx="1.997" transform="translate(0 34.083)" fill="#fff" opacity="0.2"/>
        <path id="Path_106052" data-name="Path 106052" d="M1516.935,724.8h-.376a2,2,0,0,0,0,3.994h.376a2,2,0,1,0,0-3.994Z" transform="translate(-1483.891 -690.721)" fill="#fff" opacity="0.2"/>
        <rect id="Rectangle_156632" data-name="Rectangle 156632" width="26.959" height="3.994" rx="1.997" transform="translate(46.491)" fill="#fff" opacity="0.2"/>
        <path id="Rectangle_156633" data-name="Rectangle 156633" d="M2,0h.376a2,2,0,0,1,2,2V2a2,2,0,0,1-2,2H2A2,2,0,0,1,0,2V2A2,2,0,0,1,2,0Z" transform="translate(77.163)" fill="#fff" opacity="0.2"/>
        <rect id="Rectangle_156634" data-name="Rectangle 156634" width="26.959" height="3.994" rx="1.997" transform="translate(46.491 8.467)" fill="#fff" opacity="0.2"/>
        <path id="Path_106053" data-name="Path 106053" d="M1720.745,612.506h-.375a2,2,0,1,0,0,3.994h.375a2,2,0,1,0,0-3.994Z" transform="translate(-1641.21 -604.039)" fill="#fff" opacity="0.2"/>
        <rect id="Rectangle_156635" data-name="Rectangle 156635" width="26.959" height="3.994" rx="1.997" transform="translate(46.491 17.006)" fill="#fff" opacity="0.2"/>
        <path id="Path_106054" data-name="Path 106054" d="M1720.745,649.939h-.375a2,2,0,1,0,0,3.994h.375a2,2,0,1,0,0-3.994Z" transform="translate(-1641.21 -632.933)" fill="#fff" opacity="0.2"/>
        <rect id="Rectangle_156636" data-name="Rectangle 156636" width="26.959" height="3.994" rx="1.997" transform="translate(46.491 25.544)" fill="#fff" opacity="0.2"/>
        <path id="Path_106055" data-name="Path 106055" d="M1720.745,687.372h-.375a2,2,0,0,0-2,2h0a2,2,0,0,0,2,2h.375a2,2,0,0,0,2-2h0A2,2,0,0,0,1720.745,687.372Z" transform="translate(-1641.21 -661.828)" fill="#fff" opacity="0.2"/>
        <rect id="Rectangle_156637" data-name="Rectangle 156637" width="26.959" height="3.994" rx="1.997" transform="translate(46.491 34.083)" fill="#fff" opacity="0.2"/>
        <path id="Path_106056" data-name="Path 106056" d="M1720.745,724.8h-.375a2,2,0,1,0,0,3.994h.375a2,2,0,1,0,0-3.994Z" transform="translate(-1641.21 -690.721)" fill="#fff" opacity="0.2"/>
        <rect id="Rectangle_156638" data-name="Rectangle 156638" width="26.959" height="3.994" rx="1.997" transform="translate(89.771)" fill="#fff" opacity="0.2"/>
        <path id="Rectangle_156639" data-name="Rectangle 156639" d="M2,0h.376a2,2,0,0,1,2,2V2a2,2,0,0,1-2,2H2A2,2,0,0,1,0,2V2A2,2,0,0,1,2,0Z" transform="translate(120.443)" fill="#fff" opacity="0.2"/>
        <rect id="Rectangle_156640" data-name="Rectangle 156640" width="26.959" height="3.994" rx="1.997" transform="translate(89.771 8.467)" fill="#fff" opacity="0.2"/>
        <path id="Path_106057" data-name="Path 106057" d="M1910.479,612.506h-.376a2,2,0,1,0,0,3.994h.376a2,2,0,0,0,0-3.994Z" transform="translate(-1787.663 -604.039)" fill="#fff" opacity="0.2"/>
        <rect id="Rectangle_156641" data-name="Rectangle 156641" width="26.959" height="3.994" rx="1.997" transform="translate(89.771 17.006)" fill="#fff" opacity="0.2"/>
        <path id="Path_106058" data-name="Path 106058" d="M1910.479,649.939h-.376a2,2,0,1,0,0,3.994h.376a2,2,0,0,0,0-3.994Z" transform="translate(-1787.663 -632.933)" fill="#fff" opacity="0.2"/>
        <rect id="Rectangle_156642" data-name="Rectangle 156642" width="26.959" height="3.994" rx="1.997" transform="translate(89.771 25.544)" fill="#fff" opacity="0.2"/>
        <path id="Path_106059" data-name="Path 106059" d="M1910.479,687.372h-.376a2,2,0,0,0-2,2h0a2,2,0,0,0,2,2h.376a2,2,0,0,0,2-2h0A2,2,0,0,0,1910.479,687.372Z" transform="translate(-1787.663 -661.828)" fill="#fff" opacity="0.2"/>
        <rect id="Rectangle_156643" data-name="Rectangle 156643" width="26.959" height="3.994" rx="1.997" transform="translate(89.771 34.083)" fill="#fff" opacity="0.2"/>
        <path id="Path_106060" data-name="Path 106060" d="M1910.479,724.8h-.376a2,2,0,1,0,0,3.994h.376a2,2,0,0,0,0-3.994Z" transform="translate(-1787.663 -690.721)" fill="#fff" opacity="0.2"/>
      </g>
    </g>
    <path id="Path_106061" data-name="Path 106061" d="M1234.561,609.481s-.943-1.931-5.656-1.4-6.042,4.763-6.26,7.585-10.25,36.572-8.689,45.7l17.82-7.861Z" transform="translate(-693.902 -208.493)" fill="#163560"/>
    <path id="Path_106062" data-name="Path 106062" d="M1279.531,614.125s-5.027-1.7-7.673.818a5.317,5.317,0,0,0-1.147,5.839Z" transform="translate(-737.511 -212.799)" fill="#c65447"/>
    <path id="Path_106063" data-name="Path 106063" d="M1290.5,625.893s-.093-11.083-17.932-9.807a8.72,8.72,0,0,0-7.167,4.658c-2.006,3.922-2.881,10.825,3.6,21.893Z" transform="translate(-732.607 -214.665)" fill="#163560"/>
    <path id="Path_106064" data-name="Path 106064" d="M1281.4,748.632l4.019,15.712,11.614.567,5.78-8.662c-5.4-4.1-6.168-11.277-6.089-15.537,0-.042,0-.083,0-.125a25.16,25.16,0,0,1,.275-3.334l-8.24-2.509-6.276-1.91a47.834,47.834,0,0,1,.277,10.678C1282.354,747.318,1281.4,748.632,1281.4,748.632Z" transform="translate(-746.09 -304.86)" fill="#ffb27d"/>
    <path id="Path_106071" data-name="Path 106071" d="M1217.875,804.46c2.015-3.734,12.865-3.8,12.865-3.8,1.046,1.263,6.913,5.146,13.923,5.269,4.939.087,3.006-4.7,3.006-4.7.243.034,1.3-.2,1.546-.125a6.648,6.648,0,0,1,3.269,2.486c-.045-.92-.07-1.461-.07-1.461s10.3,2.809,25.073,27.888c.437.742,1.685.622,4.586.06,3.693-.72,11.232-.626,22.606-2.3,0,0,.391.283.5,1.527a18.418,18.418,0,0,0,.51,3.558,141.764,141.764,0,0,1-15.455,6.052c-2.818.894-5.763,1.729-8.575,2.358a43.984,43.984,0,0,1-7.293,1.095,48.511,48.511,0,0,1-12.753-8.185c.563,3.995.845,6.856.82,7.175a78.806,78.806,0,0,0,.139,9.463s-29.858,8.138-38.652,3.957a3.676,3.676,0,0,1-2.4-3.165c-.86-16.266-4.675-29.47-5.048-38.588C1216.318,809.565,1216.671,806.69,1217.875,804.46Z" transform="translate(-695.94 -357.219)" fill="#f4be61"/>
    <path id="Path_106072" data-name="Path 106072" d="M1243.307,894.032a7.977,7.977,0,0,0-10.327,8.133c.356,5.494.8,11.907,1.29,21.24a3.676,3.676,0,0,0,2.4,3.165l8.55-17.736-1.917-14.8Z" transform="translate(-708.7 -429.006)" fill="#f2a83d"/>
    <path id="Path_106074" data-name="Path 106074" d="M1219.943,876.859l4.056-29.6a2.39,2.39,0,0,1,.511-1.165c5.109-6.434,5.641-26.543,5.652-34.219a2.96,2.96,0,0,1,2.889-2.991c-.121-.368-2.467-7.482-4.632-11.044a1.07,1.07,0,0,1,.762-1.614h0a1.069,1.069,0,0,1,1.024.435,45.809,45.809,0,0,1,6.3,12.24h-1.1l.974.008a1.857,1.857,0,0,1,.246.016,88.013,88.013,0,0,0,21.538-.025h-.683a85.085,85.085,0,0,0-4.065-10.078,1.085,1.085,0,0,1,1.326-1.523l.031.011a1.076,1.076,0,0,1,.529.405,40.23,40.23,0,0,1,5.533,10.854,2.329,2.329,0,0,1,2.125,2.148l1.19,13.906,1.633,19.05c.587,4.218.442,26.256.376,33.54a2.333,2.333,0,0,1-2.3,2.341h-41.641A2.341,2.341,0,0,1,1219.943,876.859Z" transform="translate(-698.632 -353.78)" fill="#ee9849"/>
    <path id="Path_106077" data-name="Path 106077" d="M1299.547,667.838s-17.705.809-18.039-10.224-2.844-18.36,8.446-19.343,13.615,3.161,14.622,6.816S1304.144,667.343,1299.547,667.838Z" transform="translate(-745.811 -231.755)" fill="#ffb27d"/>
    <path id="Path_106078" data-name="Path 106078" d="M1285.978,630.62a28.444,28.444,0,0,1,7.882-.965c4.851,0,10.584,3.616,11.289,9.349s-2.922,7.937-2.922,7.937c.843-6.111-7.043-10.847-7.043-10.847l-.067-.04c-3.067,1.289-8.6,3.082-9.105,6.478-.794,5.292-6.986,7.317-6.986,7.317S1273.72,630.145,1285.978,630.62Z" transform="translate(-743.373 -225.218)" fill="#163560"/>
    <path id="Path_106079" data-name="Path 106079" d="M1353.782,740.833s-.128,1.121-2.861,1.273c0,0-2.295.128-2.367-1.079A7.382,7.382,0,0,1,1353.782,740.833Z" transform="translate(-797.924 -310.755)" fill="#fff"/>
    <rect id="Rectangle_156644" data-name="Rectangle 156644" width="238.432" height="126.11" transform="translate(393.628 525.622)" fill="#247257"/>
    <g id="Group_215379" data-name="Group 215379" transform="translate(630.09 400.22)">
      <path id="Path_106080" data-name="Path 106080" d="M1877.989,1610.976c-.219,2.714-4.051,2.715-8.395,2.178s-3.2.572-9.285.612-8.172-1.988-8.46-2.86c-.257-.774,2.68-1.4,5.822-2.142.4-.092.792-.189,1.188-.286a15.975,15.975,0,0,0,8.948-5.791c2.641-3.384,5.055-18.79,5.055-18.79l9.514,1.775s-5.538,13.206-6.106,17.536c-.255,1.943,1.127,3.24,1.451,4.941A10.66,10.66,0,0,1,1877.989,1610.976Z" transform="translate(-1816.491 -1362.009)" fill="#b77446"/>
      <path id="Path_106081" data-name="Path 106081" d="M1851.854,1692.976c.227.7,1.6,2.125,5.233,2.655h6.773c2.318-.306,2.543-.8,5.738-.407,4.343.537,8.176.535,8.394-2.179a10.6,10.6,0,0,0-.267-2.826c-2.822.285-7,1.959-11.091,2.337a17.043,17.043,0,0,1-8.921-1.666l-.038-.058C1854.533,1691.575,1851.6,1692.2,1851.854,1692.976Z" transform="translate(-1816.494 -1444.078)" fill="#365da4"/>
      <g id="Group_215378" data-name="Group 215378" transform="translate(52.992 108.381)">
        <path id="Path_106082" data-name="Path 106082" d="M1929.2,1210.9a15.561,15.561,0,0,0,4.835,2.075c3.514.639,5.146-.07,5.146-.07s16.9-42.441,15.938-56.782c-.024-.345-.036-.711-.041-1.1a60.264,60.264,0,0,1,.948-9.621c.228-1.4.49-2.865.782-4.381.677-3.536,1.517-7.35,2.439-11.24.4-1.713.829-3.44,1.259-5.165,4.249-16.969,9.442-33.691,9.442-33.691s-30.5-9.964-32.228-.652c-.662,3.574-2.867,17.874-1.874,39.74a315.423,315.423,0,0,1-1.237,47.265A260.782,260.782,0,0,1,1929.2,1210.9Z" transform="translate(-1929.204 -1086.294)" fill="#365da4"/>
      </g>
      <path id="Path_106083" data-name="Path 106083" d="M2033.058,1255.143a60.262,60.262,0,0,1,.948-9.621c.228-1.4.49-2.865.782-4.381.677-3.536,1.516-7.35,2.439-11.24.4-1.713.828-3.44,1.259-5.165-.6-5.178-1.088-8.731-1.088-8.731A43.408,43.408,0,0,0,2033.058,1255.143Z" transform="translate(-1954.189 -1078.037)" fill="#285493"/>
      <path id="Path_106084" data-name="Path 106084" d="M2020.542,1620.757c.214.65,1.431,1.945,4.567,2.543h8.163a11.631,11.631,0,0,1,5.015-.3c4.344.537,8.174.535,8.394-2.179a10.629,10.629,0,0,0-.266-2.826c-.324-1.7-1.452-2.982-1.452-4.942,0-5.822,1.349-16.4,1.349-16.4l-8.945,3.195s2.017,10.517-.866,12.685c-3.043,2.289-5.4,4.918-8.948,5.792q-.594.146-1.189.284C2023.221,1619.356,2020.286,1619.983,2020.542,1620.757Z" transform="translate(-1946.703 -1371.859)" fill="#b77446"/>
      <path id="Path_106085" data-name="Path 106085" d="M2020.542,1692.976c.214.652,1.431,1.947,4.57,2.543h8.161a11.615,11.615,0,0,1,5.013-.3c4.344.537,8.174.535,8.394-2.179a10.629,10.629,0,0,0-.266-2.826c-2.822.285-7,1.959-11.091,2.337a17.044,17.044,0,0,1-8.921-1.666l-.038-.058C2023.221,1691.575,2020.286,1692.2,2020.542,1692.976Z" transform="translate(-1946.703 -1444.078)" fill="#365da4"/>
      <path id="Path_106086" data-name="Path 106086" d="M2027.285,1052.119s9.924,49.459,11.6,76.378,3.769,49.205,3.769,49.205a13.124,13.124,0,0,0,4.65.639,17.115,17.115,0,0,0,4.7-.959s9.836-40.5,6.578-56.713-.544-31.165,1.02-44.612c2.242-19.281-6.385-28.243-12.408-34.351C2041.1,1035.524,2027.285,1052.119,2027.285,1052.119Z" transform="translate(-1951.92 -942.432)" fill="#365da4"/>
      <path id="Path_106087" data-name="Path 106087" d="M1986.175,630.266c-.986-8.052,1.529-20.937,17.6-18.879s21.137,17.854,17.9,24.877,4.666,8.717,7.148,16.269c2.133,6.488,2.876,14.544,6.327,18.159,11.126,11.656-10.682,29.58-23.828,25.8-23.946-6.885-27.03-7.912-26.18-26.727.436-9.64,7.936-13.375,3.174-16.164C1976.808,646.864,1988.406,648.487,1986.175,630.266Z" transform="translate(-1917.843 -611.168)" fill="#c45446"/>
      <path id="Path_106088" data-name="Path 106088" d="M1982.273,737.933a43.991,43.991,0,0,1,5.4-.9,22.641,22.641,0,0,0,.721-9.722l11.958-3.641c.571,12.6,1.7,14.272,1.951,14.49a54.37,54.37,0,0,1,7.926,2.555s-7.635,43.677-4.355,52.013a88.067,88.067,0,0,1,4.526,15.734l-35.575.441s.5-28.612-1.142-38.738S1982.273,737.933,1982.273,737.933Z" transform="translate(-1910.409 -698.007)" fill="#e49963"/>
      <path id="Path_106089" data-name="Path 106089" d="M2016.7,663.23s14.316,2.875,15.969-6.068,4.614-14.594-4.456-16.807-11.481.869-12.759,3.72S2013.016,662.251,2016.7,663.23Z" transform="translate(-1941.83 -633.114)" fill="#e49963"/>
      <path id="Path_106090" data-name="Path 106090" d="M1751.191,814.645c.106-1.244.5-1.527.5-1.527,11.374,1.67,18.912,1.576,22.605,2.3,2.9.562,4.087.643,4.586-.06,15.712-22.094,26.833-29.033,26.833-29.033s1.186-.705,5.826-1.344c0,0,.667,8.4,4.984,9.114,7.467,1.231,13.484-5.608,15.242-8.362,0,0,8.575,2.164,11.093,5.033,1.808,2.062,1.572,6.995,1.035,10.1a13.779,13.779,0,0,1-.545,2.249c-.531,1.4-2.539,11.7-3.455,15.8-.021.1-.042.2-.062.29-.064.275-.119.516-.171.716,0,.007,0,.011,0,.017-.053.219-.1.39-.134.5l-.064.2a.027.027,0,0,1,0,.013,34.048,34.048,0,0,0-1.65,13.787,14.855,14.855,0,0,0,.409,2.209c1.195,6.126,6.16,18.2,7.19,23.747a7.287,7.287,0,0,1-3.578,3.033,33.858,33.858,0,0,1-6.854,2.2,66.145,66.145,0,0,1-6.98,1.112c-1.523.17-3.154.315-4.816.411-.234.015-.467.028-.7.038-10.718.532-22.718.268-24.281-4.827-.75-2.445,2.238-17.144,2.637-21.512.7-7.672-.439-18.178-.951-26.313-8.8,9.692-17.873,13.178-17.873,13.178a43.936,43.936,0,0,1-7.293-1.095c-2.812-.628-5.757-1.463-8.575-2.358a141.759,141.759,0,0,1-15.455-6.052A18.417,18.417,0,0,0,1751.191,814.645Z" transform="translate(-1738.412 -745.33)" fill="#a8d29f"/>
      <path id="Path_106091" data-name="Path 106091" d="M2011.286,619.068c7.062-6.959,14.179-4.578,14.179-4.578s3.566,4.047,5.989,6.772c4.233,4.762-3.7,19.677-3.7,19.677s1.122-9.175-3.586-14.322a19.643,19.643,0,0,1-3.915-5.818,9.955,9.955,0,0,1-2.86,1.654c-4.555,1.6-7.058,8.926-7.058,8.926C2008.7,627.96,2008.243,622.066,2011.286,619.068Z" transform="translate(-1937.846 -613.429)" fill="#c45446"/>
      <path id="Path_106092" data-name="Path 106092" d="M2027.239,720.1s-.383,1.061-3.078.579c0,0-2.262-.4-2.054-1.6A7.38,7.38,0,0,1,2027.239,720.1Z" transform="translate(-1947.913 -694.383)" fill="#fff"/>
      <path id="Path_106093" data-name="Path 106093" d="M2008.068,883.638c2.03,6.886,3.21,12.554,8.309,16.386,1.661-.1,3.293-.241,4.816-.411a66.119,66.119,0,0,0,6.98-1.112,33.853,33.853,0,0,0,6.854-2.2,7.287,7.287,0,0,0,3.578-3.033c-1.031-5.544-6-17.621-7.19-23.747a14.752,14.752,0,0,1-.237-1.606,39.981,39.981,0,0,1,1.478-14.39.028.028,0,0,0,0-.013c.066-.234.132-.467.2-.7,0-.006,0-.01,0-.017.043-.151.1-.4.17-.716.019-.089.041-.185.062-.29.818-3.885,2.958-16.077,3.5-17.668a16.141,16.141,0,0,0,.535-2.428l-4.283-4.121s-24.575,10.494-29.989,24.969S2005.152,873.759,2008.068,883.638Z" transform="translate(-1931.615 -778.21)" fill="#82b378"/>
      <path id="Path_106094" data-name="Path 106094" d="M1818.435,910.705c5.44,1.725,11.359,3.237,15.868,3.452,0,0,9.2-3.531,18.049-13.372.373-1.672.733-4.477-1.293-3.668-2.842,1.135-13.349,14.626-17.325,14.909C1830.889,912.23,1822.8,911.27,1818.435,910.705Z" transform="translate(-1790.711 -831.78)" fill="#82b378"/>
      <path id="Path_106095" data-name="Path 106095" d="M1903.52,833.969s12.114,6.085,22.616,8.6a47.143,47.143,0,0,0,8.417,1.355s11.3-3.474,19.915-15.549c16.65-23.323,3.8-25.838,3.8-25.838s-11.122,6.939-26.833,29.033c-.55.773-1.93.6-5.5-.124-3.817-.771-11.414-.68-21.9-2.22a5.857,5.857,0,0,0-.283,1.634C1903.506,833.609,1903.52,833.969,1903.52,833.969Z" transform="translate(-1856.387 -758.886)" fill="#a8d29f"/>
      <path id="Path_106096" data-name="Path 106096" d="M1697.232,897.755c1.359-1.279,7.752-.479,10.149.719a19.457,19.457,0,0,0,2.776,1.1c11.189,1.621,18.963,1.676,22.619,2.389a20.691,20.691,0,0,1,.417,11.2c-2.812-.628-5.757-1.463-8.575-2.358a141.842,141.842,0,0,1-15.407-6.03,37.332,37.332,0,0,0-4.707-.387C1698.671,904.228,1695.874,899.034,1697.232,897.755Z" transform="translate(-1696.894 -831.879)" fill="#e49963"/>
      <path id="Path_106097" data-name="Path 106097" d="M1837.937,905.192c1.45-1.365,8.275-.512,10.835.768a23.305,23.305,0,0,0,4.3,1.561l0-.017c10.488,1.54,18.138,1.874,21.955,2.645a12.362,12.362,0,0,0,.209,11.122c-10.031-2.4-21.784-7.771-22.821-8.249a31.433,31.433,0,0,0-6.713-.75C1839.473,912.1,1836.487,906.557,1837.937,905.192Z" transform="translate(-1805.486 -837.586)" fill="#e49963"/>
    </g>
    <path id="Path_106098" data-name="Path 106098" d="M1273.2,841.673s-12.114,6.085-22.616,8.6a47.123,47.123,0,0,1-8.417,1.354s-11.3-3.474-19.915-15.548c-16.65-23.323-3.8-25.838-3.8-25.838s11.122,6.939,26.833,29.033c.55.773,1.93.6,5.5-.124,3.817-.771,11.414-.679,21.9-2.219a5.85,5.85,0,0,1,.284,1.633C1273.215,841.313,1273.2,841.673,1273.2,841.673Z" transform="translate(-693.849 -364.613)" fill="#f4be61"/>
    <path id="Path_106099" data-name="Path 106099" d="M1500.857,913.168c3.656-.713,11.43-.768,22.619-2.389a19.536,19.536,0,0,0,2.776-1.1c2.4-1.2,8.791-2,10.149-.719s-1.439,6.473-7.272,6.633a37.379,37.379,0,0,0-4.707.387,141.77,141.77,0,0,1-15.408,6.03c-2.818.894-5.763,1.729-8.575,2.358A20.691,20.691,0,0,1,1500.857,913.168Z" transform="translate(-914.726 -440.308)" fill="#a86337"/>
    <g id="Group_215382" data-name="Group 215382" transform="translate(575.138 455.866)">
      <g id="Group_215380" data-name="Group 215380" transform="translate(7.873)">
        <path id="Path_106100" data-name="Path 106100" d="M1492.424,864.42l.137,3.142.287,6.568.131,3.025h8.336l.189-3.025.409-6.568.2-3.142Z" transform="translate(-1491.987 -862.297)" fill="#c65447"/>
        <path id="Path_106101" data-name="Path 106101" d="M1490.787,855.114h9.875l.407,2.123h-10.559Z" transform="translate(-1490.509 -855.114)" fill="#e57970"/>
        <path id="Path_106102" data-name="Path 106102" d="M1493.026,878.195l.287,6.568h8.656l.409-6.568Z" transform="translate(-1492.452 -872.93)" fill="#e57970"/>
      </g>
      <g id="Group_215381" data-name="Group 215381" transform="translate(22.995)">
        <path id="Path_106103" data-name="Path 106103" d="M1558.719,864.42l.137,3.142.287,6.568.131,3.025h8.336l.189-3.025.409-6.568.2-3.142Z" transform="translate(-1558.282 -862.297)" fill="#c65447"/>
        <path id="Path_106104" data-name="Path 106104" d="M1557.082,855.114h9.875l.407,2.123H1556.8Z" transform="translate(-1556.804 -855.114)" fill="#e57970"/>
        <path id="Path_106105" data-name="Path 106105" d="M1559.321,878.195l.287,6.568h8.657l.409-6.568Z" transform="translate(-1558.747 -872.93)" fill="#e57970"/>
      </g>
      <rect id="Rectangle_156645" data-name="Rectangle 156645" width="41.811" height="2.201" transform="translate(41.811 17.058) rotate(180)" fill="#1c468a"/>
    </g>
    <path id="Path_106106" data-name="Path 106106" d="M1375.324,928.975a12.362,12.362,0,0,0,.209-11.123c3.817-.771,11.467-1.105,21.955-2.645l0,.018a23.332,23.332,0,0,0,4.3-1.561c2.559-1.28,9.384-2.133,10.835-.768s-1.536,6.91-7.763,7.081a31.409,31.409,0,0,0-6.713.75C1397.109,921.2,1385.355,926.571,1375.324,928.975Z" transform="translate(-818.587 -443.313)" fill="#b77446"/>
    <path id="Path_106107" data-name="Path 106107" d="M794.747,1160.916c4.759,0,8.652,4.313,8.652,9.586h0c0,5.272-3.894,9.585-8.652,9.585H494.591a9.586,9.586,0,0,1-9.586-9.586h0a9.585,9.585,0,0,1,9.586-9.585Z" transform="translate(-131.358 -635.294)" fill="#e57970"/>
    <g id="Group_215396" data-name="Group 215396" transform="translate(399.847 422.255)">
      <g id="Group_215383" data-name="Group 215383" transform="translate(56.563 11.852)">
        <path id="Path_106108" data-name="Path 106108" d="M947.1,772.46l-.138-3.142-.287-6.568-.131-3.025h-8.336l-.189,3.025-.409,6.568-.2,3.142Z" transform="translate(-936.981 -759.725)" fill="#c65447"/>
        <path id="Path_106109" data-name="Path 106109" d="M945.785,817.676H935.91l-.407-2.123h10.559Z" transform="translate(-935.503 -802.818)" fill="#e57970"/>
        <path id="Path_106110" data-name="Path 106110" d="M947.628,779.553l-.287-6.568h-8.656l-.409,6.568Z" transform="translate(-937.643 -769.96)" fill="#e57970"/>
      </g>
      <g id="Group_215384" data-name="Group 215384" transform="translate(56.563 9.533)">
        <path id="Path_106111" data-name="Path 106111" d="M947.1,762.3l-.138-3.142-.287-6.568-.131-3.025h-8.336l-.189,3.025-.409,6.568-.2,3.142Z" transform="translate(-936.981 -749.56)" fill="#c65447"/>
        <path id="Path_106112" data-name="Path 106112" d="M945.785,807.512H935.91l-.407-2.123h10.559Z" transform="translate(-935.503 -792.654)" fill="#e57970"/>
        <path id="Path_106113" data-name="Path 106113" d="M947.628,769.389l-.287-6.568h-8.656l-.409,6.568Z" transform="translate(-937.643 -759.796)" fill="#e57970"/>
      </g>
      <g id="Group_215385" data-name="Group 215385" transform="translate(56.563 7.158)">
        <path id="Path_106114" data-name="Path 106114" d="M947.1,751.884l-.138-3.142-.287-6.568-.131-3.025h-8.336l-.189,3.025-.409,6.568-.2,3.142Z" transform="translate(-936.981 -739.149)" fill="#c65447"/>
        <path id="Path_106115" data-name="Path 106115" d="M945.785,797.1H935.91l-.407-2.123h10.559Z" transform="translate(-935.503 -782.242)" fill="#e57970"/>
        <path id="Path_106116" data-name="Path 106116" d="M947.628,758.978l-.287-6.568h-8.656l-.409,6.568Z" transform="translate(-937.643 -749.385)" fill="#e57970"/>
      </g>
      <g id="Group_215386" data-name="Group 215386" transform="translate(56.563 4.772)">
        <path id="Path_106117" data-name="Path 106117" d="M947.1,741.424l-.138-3.142-.287-6.568-.131-3.025h-8.336l-.189,3.025-.409,6.568-.2,3.142Z" transform="translate(-936.981 -728.688)" fill="#c65447"/>
        <path id="Path_106118" data-name="Path 106118" d="M945.785,786.64H935.91l-.407-2.123h10.559Z" transform="translate(-935.503 -771.782)" fill="#e57970"/>
        <path id="Path_106119" data-name="Path 106119" d="M947.628,748.517l-.287-6.568h-8.656l-.409,6.568Z" transform="translate(-937.643 -738.924)" fill="#e57970"/>
      </g>
      <g id="Group_215387" data-name="Group 215387" transform="translate(56.563 2.375)">
        <path id="Path_106120" data-name="Path 106120" d="M947.1,730.914l-.138-3.142-.287-6.568-.131-3.025h-8.336l-.189,3.025-.409,6.568-.2,3.142Z" transform="translate(-936.981 -718.179)" fill="#c65447"/>
        <path id="Path_106121" data-name="Path 106121" d="M945.785,776.13H935.91l-.407-2.123h10.559Z" transform="translate(-935.503 -761.272)" fill="#e57970"/>
        <path id="Path_106122" data-name="Path 106122" d="M947.628,738.007l-.287-6.568h-8.656l-.409,6.568Z" transform="translate(-937.643 -728.414)" fill="#e57970"/>
      </g>
      <g id="Group_215388" data-name="Group 215388" transform="translate(56.563)">
        <path id="Path_106123" data-name="Path 106123" d="M947.1,720.5l-.138-3.142-.287-6.568-.131-3.025h-8.336l-.189,3.025-.409,6.568-.2,3.142Z" transform="translate(-936.981 -707.768)" fill="#c65447"/>
        <path id="Path_106124" data-name="Path 106124" d="M945.785,765.719H935.91L935.5,763.6h10.559Z" transform="translate(-935.503 -750.861)" fill="#e57970"/>
        <path id="Path_106125" data-name="Path 106125" d="M947.628,727.6l-.287-6.568h-8.656l-.409,6.568Z" transform="translate(-937.643 -718.003)" fill="#e57970"/>
      </g>
      <g id="Group_215389" data-name="Group 215389" transform="translate(45.263 11.852)">
        <path id="Path_106126" data-name="Path 106126" d="M897.564,772.46l-.137-3.142-.287-6.568-.131-3.025h-8.336l-.189,3.025-.409,6.568-.2,3.142Z" transform="translate(-887.441 -759.725)" fill="#c65447"/>
        <path id="Path_106127" data-name="Path 106127" d="M896.245,817.676h-9.874l-.407-2.123h10.559Z" transform="translate(-885.964 -802.818)" fill="#e57970"/>
        <path id="Path_106128" data-name="Path 106128" d="M898.088,779.553l-.287-6.568h-8.656l-.409,6.568Z" transform="translate(-888.103 -769.96)" fill="#e57970"/>
      </g>
      <g id="Group_215390" data-name="Group 215390" transform="translate(45.263 9.455)">
        <path id="Path_106129" data-name="Path 106129" d="M897.564,761.95l-.137-3.142-.287-6.568-.131-3.025h-8.336l-.189,3.025-.409,6.568-.2,3.142Z" transform="translate(-887.441 -749.215)" fill="#c65447"/>
        <path id="Path_106130" data-name="Path 106130" d="M896.245,807.166h-9.874l-.407-2.123h10.559Z" transform="translate(-885.964 -792.308)" fill="#e57970"/>
        <path id="Path_106131" data-name="Path 106131" d="M898.088,769.044l-.287-6.568h-8.656l-.409,6.568Z" transform="translate(-888.103 -759.451)" fill="#e57970"/>
      </g>
      <g id="Group_215391" data-name="Group 215391" transform="translate(45.263 7.08)">
        <path id="Path_106132" data-name="Path 106132" d="M897.564,751.539l-.137-3.142-.287-6.568-.131-3.025h-8.336l-.189,3.025-.409,6.568-.2,3.142Z" transform="translate(-887.441 -738.804)" fill="#c65447"/>
        <path id="Path_106133" data-name="Path 106133" d="M896.245,796.755h-9.874l-.407-2.123h10.559Z" transform="translate(-885.964 -781.897)" fill="#e57970"/>
        <path id="Path_106134" data-name="Path 106134" d="M898.088,758.632l-.287-6.568h-8.656l-.409,6.568Z" transform="translate(-888.103 -749.039)" fill="#e57970"/>
      </g>
      <g id="Group_215395" data-name="Group 215395" transform="translate(0 26.71)">
        <g id="Group_215392" data-name="Group 215392" transform="translate(0 0)">
          <rect id="Rectangle_156646" data-name="Rectangle 156646" width="76.498" height="52.592" transform="translate(79.207 73.47) rotate(180)" fill="#247257"/>
          <rect id="Rectangle_156647" data-name="Rectangle 156647" width="81.757" height="9.562" transform="translate(81.757 25.659) rotate(180)" fill="#139467"/>
          <rect id="Rectangle_156648" data-name="Rectangle 156648" width="81.757" height="9.562" transform="translate(81.757 76.658) rotate(180)" fill="#163560"/>
          <path id="Path_106135" data-name="Path 106135" d="M930.856,937.344v5l14.4,5.418a2.2,2.2,0,1,1-1.647,4.072l-13.052-5.656a6.841,6.841,0,0,1-5.6,4.775v1.922a.867.867,0,1,1-1.733,0v-1.9a6.836,6.836,0,0,1-6.046-6.789v-6.838Z" transform="translate(-864.797 -911.685)" fill="#139467"/>
          <path id="Path_106136" data-name="Path 106136" d="M703.5,937.344v5l-14.4,5.418a2.2,2.2,0,1,0,1.647,4.072l13.052-5.656a6.841,6.841,0,0,0,5.6,4.775v1.922a.867.867,0,1,0,1.733,0v-1.9a6.836,6.836,0,0,0,6.046-6.789v-6.838Z" transform="translate(-687.64 -911.685)" fill="#139467"/>
          <rect id="Rectangle_156649" data-name="Rectangle 156649" width="61.796" height="16.096" transform="translate(71.777 16.096) rotate(180)" fill="#247257"/>
        </g>
        <g id="Group_215393" data-name="Group 215393" transform="translate(49.001 56.251)">
          <path id="Path_106137" data-name="Path 106137" d="M903.306,1077.633c1.037,1.231,4.34,2.044,4.34,2.044h0a6.989,6.989,0,0,0,12.246-4.616v-2.725a6.968,6.968,0,0,0-.057-.875H905.951a7,7,0,0,0-.057.875v1.34a4.607,4.607,0,0,0-2.859.053C901.933,1074.41,902.269,1076.4,903.306,1077.633Zm.814-3.046a2.046,2.046,0,0,1,1.791.94,6.927,6.927,0,0,0,.559,2.3c-.777-.189-2.352-.677-2.7-1.582C903.324,1075.1,903.624,1074.678,904.12,1074.588Z" transform="translate(-902.352 -1071.46)" fill="#c45446"/>
          <path id="Path_106138" data-name="Path 106138" d="M947.341,1071.456H945.46a6.867,6.867,0,0,1,.057.876v2.725a7.018,7.018,0,0,1-6.056,6.931,6.38,6.38,0,0,0,.94.068,7.02,7.02,0,0,0,7-7v-2.725A6.856,6.856,0,0,0,947.341,1071.456Z" transform="translate(-930.996 -1071.456)" fill="#e37970"/>
          <rect id="Rectangle_156650" data-name="Rectangle 156650" width="5.713" height="0.855" transform="translate(13.402 10.844) rotate(180)" fill="#c45446"/>
        </g>
        <g id="Group_215394" data-name="Group 215394" transform="translate(12.027 56.252)">
          <path id="Path_106139" data-name="Path 106139" d="M741.216,1077.638c1.037,1.231,4.34,2.044,4.34,2.044h0a6.989,6.989,0,0,0,12.246-4.616v-2.725a7.014,7.014,0,0,0-.057-.875H743.861a6.968,6.968,0,0,0-.057.875v1.34a4.605,4.605,0,0,0-2.859.053C739.843,1074.414,740.179,1076.407,741.216,1077.638Zm.814-3.046a2.047,2.047,0,0,1,1.791.939,6.927,6.927,0,0,0,.559,2.3c-.777-.189-2.352-.677-2.7-1.583C741.234,1075.107,741.534,1074.683,742.03,1074.593Z" transform="translate(-740.263 -1071.465)" fill="#c45446"/>
          <path id="Path_106140" data-name="Path 106140" d="M785.251,1071.461H783.37a6.856,6.856,0,0,1,.057.875v2.725a7.018,7.018,0,0,1-6.056,6.931,6.4,6.4,0,0,0,.94.068,7.02,7.02,0,0,0,7-7v-2.725A6.9,6.9,0,0,0,785.251,1071.461Z" transform="translate(-768.906 -1071.461)" fill="#e37970"/>
          <rect id="Rectangle_156651" data-name="Rectangle 156651" width="5.713" height="0.855" transform="translate(13.402 10.844) rotate(180)" fill="#c45446"/>
        </g>
      </g>
      <rect id="Rectangle_156652" data-name="Rectangle 156652" width="1.621" height="7.173" transform="translate(78.5 51.143) rotate(180)" fill="#365da4"/>
      <rect id="Rectangle_156653" data-name="Rectangle 156653" width="1.621" height="7.173" transform="translate(75.469 51.143) rotate(180)" fill="#365da4"/>
      <rect id="Rectangle_156654" data-name="Rectangle 156654" width="1.621" height="7.173" transform="translate(72.587 51.143) rotate(180)" fill="#365da4"/>
    </g>
    <path id="Path_106141" data-name="Path 106141" d="M898.709,1244.96H804.048l-143.77,96.711V1351.9l238.431-89.341Z" transform="translate(-266.65 -700.167)" fill="#fff" opacity="0.2"/>
    <path id="Path_106142" data-name="Path 106142" d="M660.278,1461.986l238.431-74.406v16.04Z" transform="translate(-266.65 -810.254)" fill="#fff" opacity="0.2"/>
    <path id="Path_106143" data-name="Path 106143" d="M660.278,1341.671,755.2,1244.96H700.233Z" transform="translate(-266.65 -700.167)" fill="#fff" opacity="0.2"/>
    <path id="Path_106144" data-name="Path 106144" d="M912.451,1712.264h-515.4a.5.5,0,0,1-.5-.5h0a.5.5,0,0,1,.5-.5h515.4a.5.5,0,0,1,.5.5h0A.5.5,0,0,1,912.451,1712.264Z" transform="translate(-63.081 -1060.105)" fill="#283250"/>
  </g>
</svg>
